<?xml version="1.0" encoding="iso-8859-1"?>
<!-- Generator: Adobe Illustrator 16.0.0, SVG Export Plug-In . SVG Version: 6.00 Build 0)  -->
<!DOCTYPE svg PUBLIC "-//W3C//DTD SVG 1.1//EN" "http://www.w3.org/Graphics/SVG/1.1/DTD/svg11.dtd">
<svg version="1.1" id="Capa_1" xmlns="http://www.w3.org/2000/svg" xmlns:xlink="http://www.w3.org/1999/xlink" x="0px" y="0px"
	 width="314.014px" height="314.014px" viewBox="0 0 314.014 314.014" style="enable-background:new 0 0 314.014 314.014;"
	 xml:space="preserve">
<g>
	<g id="_x37_4._Messages">
		<g>
			<path d="M251.213,153.233V43.327c0-17.34-14.062-31.4-31.401-31.4H31.402C14.06,11.927,0,25.987,0,43.327v109.906
				c0,17.348,14.06,31.402,31.402,31.402h15.699v47.104c0,8.66,4.218,10.079,9.416,3.142l37.688-50.245h125.607
				C237.151,184.635,251.213,170.581,251.213,153.233z M31.402,153.241V43.327h188.41v109.914H31.402z M282.611,121.833H266.91
				v31.497h15.701v78.369H141.306v-31.362h-31.4v31.454c0,17.341,14.061,31.402,31.4,31.402h90.319l25.864,34.492
				c5.205,6.937,9.421,5.519,9.421-3.146v-31.347h15.701c17.345,0,31.402-14.062,31.402-31.402v-78.549
				C314.014,135.893,299.956,121.833,282.611,121.833z"/>
		</g>
	</g>
</g>
<g>
</g>
<g>
</g>
<g>
</g>
<g>
</g>
<g>
</g>
<g>
</g>
<g>
</g>
<g>
</g>
<g>
</g>
<g>
</g>
<g>
</g>
<g>
</g>
<g>
</g>
<g>
</g>
<g>
</g>
</svg>
